<svg width="1871" height="598" viewBox="0 0 1871 598" fill="none" xmlns="http://www.w3.org/2000/svg">
<path d="M74.5908 89L56.0908 97.5L57.0908 84L58.5908 71L60.5908 62.5L71.5908 43L85.0908 26.5L99.5908 13L114.591 4L126.091 0H152.091L166.091 7L173.591 17.5L179.091 31V57.5L177.091 69L170.091 86.5L166.091 89L159.591 88L153.591 84L143.091 75.5L130.091 66.5H114.591L109.091 69L94.0908 77.5L74.5908 89Z" fill="black"/>
<path d="M46.5908 103.5H38.5908L42.0908 99.5L43.5908 92L47.5908 83L53.5908 74.5L51.5908 89V99.5L46.5908 103.5Z" fill="black"/>
<path d="M94.5907 326L77.5907 363C71.9376 377.465 48.603 440.994 0.438439 579.5L0.0907165 580.5V581.5C0.0907165 581.5 -0.113396 583.938 0.0907165 585.5H2.59072L176.591 586L177.591 567L181.591 538L188.591 495.5L191.591 474L196.591 449.5L200.591 431.5L204.091 409L209.091 385.5L210.091 374.5L214.091 353L216.591 332L218.091 318L220.591 307L226.591 300.5L233.591 298.5L246.591 296L260.091 294.5L268.591 290L275.591 284.5L291.091 267.5L296.591 257L301.591 244.5L304.091 237V229.5L302.591 224.5L296.591 232L287.591 240.5L279.091 248.5L266.591 255.5L259.091 259L253.091 260.5H225.591L220.591 259L215.091 252L218.091 253L225.591 255.5H234.591L251.091 254.5L259.091 253L268.091 248.5L275.591 244.5L283.591 237L289.591 232L294.091 226.5L301.591 217.5L306.591 210.5L311.591 201.5L317.591 189.5L320.091 183L321.591 175L321.091 144L320.091 137.5L316.091 130.5L312.091 123.5L304.591 116L295.091 109H290.091L291.091 118.5V149.5L287.091 161.5L279.591 177L263.591 201L256.091 208L240.091 220L232.091 225.5L216.591 231L200.591 232L199.591 235L179.591 253L173.591 259L172.091 264L169.091 302.5L165.591 326L161.591 332.5L162.091 324V313L162.591 306L165.591 293.5V279.5V267.5V262L170.091 255L173.591 248.5V241V226.5L175.091 222L179.591 225.5L186.591 226.5H192.091H205.591L216.591 225.5L225.591 222L234.591 217.5L243.591 211.5L252.091 204L260.091 196.5L268.091 186.5L274.591 175.5L279.591 165L283.591 154.5L285.091 149V111L283.091 105.5L279.591 99.5L268.091 86L260.091 79.5L254.591 78.5L256.091 118.5L252.091 130.5L244.591 148.5L236.591 160L224.091 176.5L216.591 184L205.091 192.5L194.591 198L185.091 201L149.091 201.5L145.091 198.5V195.5H183.091L193.091 192L200.591 187.5L211.091 179L221.091 170L229.091 161.5L240.591 142L244.591 132.5L248.591 125V78.5L244.091 69.5L238.091 60.5L225.091 50L220.591 50.5V90.5L215.591 107L205.091 126L196.091 139L183.591 152L161.091 169.5L147.091 172.5L115.591 172L107.591 169.5L105.591 164.5L113.091 166.5L138.091 167L147.091 165.5L157.591 161.5L170.091 155L181.091 146L193.591 134C195.594 130.2 198.389 126.292 197.091 126L197.028 125.97C195.953 125.456 195.332 125.158 193.591 126.5L181.091 135.5C178.338 137.311 165.261 135.711 153.591 135.5C150.358 135.045 148.947 134.714 147.091 134C142.364 130.254 140.526 128.96 139.091 128.5C135.898 128.237 134.322 128.136 134.091 128.5C133.055 128.461 133.549 130.834 133.091 134C131.373 135.474 130.298 136.316 127.091 138C121.953 140.362 108.693 145.61 107.091 146C106.016 146.262 92.508 147.11 91.0907 146C90.1078 144.904 89.8359 141.989 90.5907 140.5C91.1892 139.105 98.3347 139.063 106.591 138.5L117.091 135.5L128.591 128.5L130.885 126.336C131.04 126 131.093 125.799 130.885 125.336C129.157 123.609 128.427 122.263 126.091 121.5C125.3 120.865 126.826 120.404 131.091 119.5C138.904 123.272 139.664 124.974 154.091 129.5C157.854 129.701 159.018 129.629 161.091 129.5C167.678 129.666 171.129 129.64 177.091 129.5C182.59 128.024 186.123 126.218 193.091 121.5C197.637 117.727 199.526 115.55 201.091 111.5C201.307 108.534 201.028 106.882 199.591 104C197.474 100.883 196.07 99.5718 193.091 98C188.294 97.1358 180.163 97.2146 169.091 97L161.091 94L149.591 88.5C146.329 86.0734 144.473 84.4426 141.091 81C136.25 76.2539 133.142 73.9013 126.591 70.5C123.852 70.0401 122.496 70.1931 120.091 70.5C114.449 71.6445 112.984 72.3079 111.091 73.5L102.591 79.5L71.5907 98L53.0907 106C43.5073 111.506 32.6402 116.769 32.5907 118.5C30.8787 121.698 32.228 126.556 34.0907 134.5L38.0907 150L46.0907 174L55.0907 195.5C58.6247 202.137 61.2624 205.323 66.5907 210.5C73.2746 216.9 78.1197 220.939 90.0907 229.5C99.2953 237.467 103.873 242.032 110.091 250.5C111.635 258.115 111.459 262.385 110.091 270L105.091 290.5L94.5907 326Z" fill="black"/>
<path d="M192.591 91.5H172.591L182.091 71.5L185.091 59V35.5L182.091 25L181.091 18.5L194.091 24L200.591 29.5L208.591 42L213.091 51.5L214.591 65.5L213.091 94.5L207.091 108L201.591 100.5L192.591 91.5Z" fill="black"/>
<path d="M257.796 569.938C258.112 571.36 258.77 572.782 259.771 574.204C260.824 575.573 262.246 576.732 264.037 577.68C265.88 578.575 268.224 579.023 271.068 579.023C275.123 579.023 278.125 578.075 280.074 576.179C282.023 574.283 282.997 572.045 282.997 569.464C282.997 567.41 282.444 565.725 281.338 564.408C280.232 563.091 278.731 562.012 276.835 561.169C274.939 560.274 272.806 559.484 270.436 558.799C268.329 558.22 266.223 557.588 264.116 556.903C262.062 556.166 260.192 555.27 258.507 554.217C256.822 553.111 255.479 551.689 254.478 549.951C253.477 548.213 252.977 546.054 252.977 543.473C252.977 540.366 253.714 537.68 255.189 535.415C256.664 533.098 258.744 531.307 261.43 530.043C264.116 528.779 267.25 528.147 270.831 528.147C273.938 528.147 276.651 528.595 278.968 529.49C281.285 530.385 283.208 531.649 284.735 533.282C286.315 534.862 287.474 536.705 288.211 538.812L282.602 540.945C282.233 539.734 281.522 538.575 280.469 537.469C279.416 536.31 278.046 535.362 276.361 534.625C274.676 533.888 272.753 533.519 270.594 533.519C268.487 533.519 266.565 533.888 264.827 534.625C263.142 535.362 261.799 536.416 260.798 537.785C259.797 539.154 259.297 540.813 259.297 542.762C259.297 544.869 259.876 546.554 261.035 547.818C262.246 549.029 263.826 550.03 265.775 550.82C267.776 551.557 269.962 552.268 272.332 552.953C274.491 553.638 276.572 554.375 278.573 555.165C280.627 555.955 282.444 556.929 284.024 558.088C285.657 559.247 286.947 560.695 287.895 562.433C288.843 564.171 289.317 566.304 289.317 568.832C289.317 571.623 288.659 574.23 287.342 576.653C286.025 579.023 284.024 580.945 281.338 582.42C278.705 583.842 275.308 584.553 271.147 584.553C267.671 584.553 264.616 584.026 261.983 582.973C259.35 581.867 257.19 580.392 255.505 578.549C253.82 576.706 252.661 574.599 252.029 572.229L257.796 569.938ZM300.631 544.5H306.477V584H300.631V544.5ZM303.633 536.6C302.422 536.6 301.421 536.205 300.631 535.415C299.841 534.625 299.446 533.651 299.446 532.492C299.446 531.281 299.841 530.28 300.631 529.49C301.421 528.7 302.422 528.305 303.633 528.305C304.739 528.305 305.687 528.7 306.477 529.49C307.32 530.28 307.741 531.281 307.741 532.492C307.741 533.651 307.32 534.625 306.477 535.415C305.687 536.205 304.739 536.6 303.633 536.6ZM319.813 544.5H325.264L325.58 550.109C326.844 548.16 328.503 546.659 330.557 545.606C332.611 544.5 335.008 543.947 337.746 543.947C340.748 543.947 343.382 544.605 345.646 545.922C347.911 547.186 349.675 549.108 350.939 551.689C352.203 554.217 352.835 557.403 352.835 561.248V584H346.91V561.959C346.91 557.851 346.015 554.744 344.224 552.637C342.486 550.478 339.958 549.398 336.64 549.398C333.217 549.398 330.531 550.53 328.582 552.795C326.686 555.06 325.738 558.404 325.738 562.828V584H319.813V544.5ZM394.822 552.479L394.19 552.558V527.12H400.115V584H394.664L394.269 576.653C393.058 578.865 391.241 580.735 388.818 582.262C386.448 583.789 383.499 584.553 379.97 584.553C376.336 584.553 373.15 583.737 370.411 582.104C367.725 580.419 365.618 578.049 364.091 574.994C362.616 571.939 361.879 568.358 361.879 564.25C361.879 560.142 362.616 556.587 364.091 553.585C365.618 550.53 367.725 548.16 370.411 546.475C373.15 544.79 376.336 543.947 379.97 543.947C383.709 543.947 386.817 544.763 389.292 546.396C391.767 548.029 393.611 550.056 394.822 552.479ZM368.278 564.25C368.278 568.779 369.437 572.387 371.754 575.073C374.071 577.706 377.231 579.023 381.234 579.023C383.709 579.023 385.921 578.444 387.87 577.285C389.819 576.126 391.346 574.441 392.452 572.229C393.611 570.017 394.19 567.357 394.19 564.25C394.19 561.143 393.611 558.509 392.452 556.35C391.346 554.138 389.819 552.453 387.87 551.294C385.921 550.083 383.709 549.477 381.234 549.477C377.284 549.477 374.124 550.82 371.754 553.506C369.437 556.139 368.278 559.721 368.278 564.25ZM413.422 544.5H419.268V584H413.422V544.5ZM416.424 536.6C415.213 536.6 414.212 536.205 413.422 535.415C412.632 534.625 412.237 533.651 412.237 532.492C412.237 531.281 412.632 530.28 413.422 529.49C414.212 528.7 415.213 528.305 416.424 528.305C417.53 528.305 418.478 528.7 419.268 529.49C420.111 530.28 420.532 531.281 420.532 532.492C420.532 533.651 420.111 534.625 419.268 535.415C418.478 536.205 417.53 536.6 416.424 536.6ZM449.431 584.553C445.587 584.553 442.216 583.71 439.319 582.025C436.423 580.34 434.158 577.996 432.525 574.994C430.945 571.939 430.155 568.411 430.155 564.408C430.155 560.353 430.945 556.798 432.525 553.743C434.158 550.636 436.423 548.239 439.319 546.554C442.216 544.816 445.587 543.947 449.431 543.947C453.487 543.947 457.042 544.895 460.096 546.791C463.151 548.634 465.363 551.215 466.732 554.533L461.281 556.429C460.491 554.322 459.043 552.663 456.936 551.452C454.882 550.188 452.486 549.556 449.747 549.556C447.061 549.556 444.718 550.162 442.716 551.373C440.768 552.584 439.24 554.296 438.134 556.508C437.081 558.72 436.554 561.327 436.554 564.329C436.554 568.753 437.739 572.308 440.109 574.994C442.479 577.627 445.639 578.944 449.589 578.944C452.275 578.944 454.672 578.338 456.778 577.127C458.885 575.916 460.439 574.283 461.439 572.229L466.811 574.125C465.389 577.39 463.151 579.945 460.096 581.788C457.042 583.631 453.487 584.553 449.431 584.553ZM501.229 584L500.755 576.89C499.649 579.313 498.016 581.209 495.857 582.578C493.698 583.895 490.959 584.553 487.641 584.553C484.797 584.553 482.374 584.105 480.373 583.21C478.372 582.315 476.818 581.051 475.712 579.418C474.659 577.733 474.132 575.758 474.132 573.493C474.132 570.175 475.37 567.463 477.845 565.356C480.32 563.197 483.902 561.88 488.589 561.406L500.755 560.063V556.903C500.755 554.691 499.939 552.927 498.306 551.61C496.673 550.241 494.461 549.556 491.67 549.556C488.931 549.556 486.64 550.188 484.797 551.452C483.006 552.716 481.769 554.533 481.084 556.903L475.712 555.007C476.765 551.531 478.688 548.819 481.479 546.87C484.323 544.921 487.773 543.947 491.828 543.947C496.515 543.947 500.149 545.158 502.73 547.581C505.363 549.951 506.68 553.19 506.68 557.298V584H501.229ZM500.755 565.119L488.51 566.541C485.877 566.857 483.875 567.594 482.506 568.753C481.137 569.859 480.452 571.334 480.452 573.177C480.452 575.02 481.11 576.495 482.427 577.601C483.796 578.707 485.745 579.26 488.273 579.26C491.17 579.26 493.54 578.681 495.383 577.522C497.226 576.363 498.569 574.81 499.412 572.861C500.307 570.86 500.755 568.7 500.755 566.383V565.119ZM520.767 544.5V533.44H526.692V544.5H537.199V550.03H526.692V571.281C526.692 573.704 527.193 575.468 528.193 576.574C529.247 577.68 530.563 578.338 532.143 578.549C533.776 578.76 535.461 578.76 537.199 578.549V583.684C535.145 584.158 533.118 584.29 531.116 584.079C529.168 583.868 527.403 583.289 525.823 582.341C524.296 581.34 523.058 579.945 522.11 578.154C521.215 576.363 520.767 574.072 520.767 571.281V550.03H514.842V544.5H520.767ZM563.077 584.553C559.337 584.553 555.993 583.737 553.044 582.104C550.094 580.471 547.777 578.154 546.092 575.152C544.406 572.097 543.564 568.49 543.564 564.329C543.564 560.116 544.406 556.482 546.092 553.427C547.83 550.372 550.173 548.029 553.123 546.396C556.125 544.763 559.495 543.947 563.235 543.947C566.974 543.947 570.318 544.763 573.268 546.396C576.27 548.029 578.613 550.372 580.299 553.427C582.037 556.429 582.906 560.01 582.906 564.171C582.906 568.384 582.037 572.018 580.299 575.073C578.561 578.128 576.191 580.471 573.189 582.104C570.187 583.737 566.816 584.553 563.077 584.553ZM562.998 578.944C565.315 578.944 567.501 578.444 569.555 577.443C571.609 576.39 573.268 574.783 574.532 572.624C575.848 570.412 576.507 567.621 576.507 564.25C576.507 560.827 575.875 558.035 574.611 555.876C573.347 553.717 571.688 552.137 569.634 551.136C567.632 550.083 565.473 549.556 563.156 549.556C560.838 549.556 558.679 550.083 556.678 551.136C554.676 552.137 553.044 553.743 551.78 555.955C550.568 558.114 549.963 560.879 549.963 564.25C549.963 567.673 550.568 570.465 551.78 572.624C552.991 574.783 554.571 576.39 556.52 577.443C558.521 578.444 560.68 578.944 562.998 578.944ZM645.246 552.479L644.614 552.558V527.12H650.539V584H645.088L644.693 576.653C643.482 578.865 641.665 580.735 639.242 582.262C636.872 583.789 633.923 584.553 630.394 584.553C626.76 584.553 623.574 583.737 620.835 582.104C618.149 580.419 616.042 578.049 614.515 574.994C613.04 571.939 612.303 568.358 612.303 564.25C612.303 560.142 613.04 556.587 614.515 553.585C616.042 550.53 618.149 548.16 620.835 546.475C623.574 544.79 626.76 543.947 630.394 543.947C634.133 543.947 637.241 544.763 639.716 546.396C642.191 548.029 644.035 550.056 645.246 552.479ZM618.702 564.25C618.702 568.779 619.861 572.387 622.178 575.073C624.495 577.706 627.655 579.023 631.658 579.023C634.133 579.023 636.345 578.444 638.294 577.285C640.243 576.126 641.77 574.441 642.876 572.229C644.035 570.017 644.614 567.357 644.614 564.25C644.614 561.143 644.035 558.509 642.876 556.35C641.77 554.138 640.243 552.453 638.294 551.294C636.345 550.083 634.133 549.477 631.658 549.477C627.708 549.477 624.548 550.82 622.178 553.506C619.861 556.139 618.702 559.721 618.702 564.25ZM679.725 584.553C675.986 584.553 672.641 583.737 669.692 582.104C666.743 580.471 664.425 578.154 662.74 575.152C661.055 572.097 660.212 568.49 660.212 564.329C660.212 560.116 661.055 556.482 662.74 553.427C664.478 550.372 666.822 548.029 669.771 546.396C672.773 544.763 676.144 543.947 679.883 543.947C683.622 543.947 686.967 544.763 689.916 546.396C692.918 548.029 695.262 550.372 696.947 553.427C698.685 556.429 699.554 560.01 699.554 564.171C699.554 568.384 698.685 572.018 696.947 575.073C695.209 578.128 692.839 580.471 689.837 582.104C686.835 583.737 683.464 584.553 679.725 584.553ZM679.646 578.944C681.963 578.944 684.149 578.444 686.203 577.443C688.257 576.39 689.916 574.783 691.18 572.624C692.497 570.412 693.155 567.621 693.155 564.25C693.155 560.827 692.523 558.035 691.259 555.876C689.995 553.717 688.336 552.137 686.282 551.136C684.281 550.083 682.121 549.556 679.804 549.556C677.487 549.556 675.327 550.083 673.326 551.136C671.325 552.137 669.692 553.743 668.428 555.955C667.217 558.114 666.611 560.879 666.611 564.25C666.611 567.673 667.217 570.465 668.428 572.624C669.639 574.783 671.219 576.39 673.168 577.443C675.169 578.444 677.329 578.944 679.646 578.944ZM712.498 571.913C712.814 573.493 713.393 574.81 714.236 575.863C715.078 576.864 716.158 577.627 717.475 578.154C718.844 578.681 720.424 578.944 722.215 578.944C725.006 578.944 727.113 578.417 728.535 577.364C730.009 576.258 730.747 574.889 730.747 573.256C730.747 571.887 730.299 570.781 729.404 569.938C728.561 569.095 727.429 568.411 726.007 567.884C724.585 567.305 723.005 566.804 721.267 566.383C719.897 566.067 718.423 565.698 716.843 565.277C715.263 564.803 713.762 564.171 712.34 563.381C710.918 562.591 709.759 561.564 708.864 560.3C707.968 559.036 707.521 557.377 707.521 555.323C707.521 553.058 708.126 551.083 709.338 549.398C710.602 547.66 712.313 546.317 714.473 545.369C716.685 544.421 719.213 543.947 722.057 543.947C725.322 543.947 728.219 544.658 730.747 546.08C733.327 547.502 735.118 549.714 736.119 552.716L730.589 554.612C730.22 553.243 729.535 552.189 728.535 551.452C727.587 550.715 726.507 550.214 725.296 549.951C724.137 549.688 722.978 549.556 721.82 549.556C719.45 549.556 717.527 550.03 716.053 550.978C714.631 551.873 713.92 553.243 713.92 555.086C713.92 556.087 714.157 556.929 714.631 557.614C715.105 558.246 715.763 558.773 716.606 559.194C717.448 559.615 718.449 559.984 719.608 560.3C720.766 560.563 722.03 560.879 723.4 561.248C724.927 561.617 726.481 562.091 728.061 562.67C729.641 563.197 731.115 563.908 732.485 564.803C733.854 565.646 734.96 566.752 735.803 568.121C736.698 569.438 737.146 571.097 737.146 573.098C737.146 575.415 736.514 577.443 735.25 579.181C733.986 580.866 732.221 582.183 729.957 583.131C727.745 584.079 725.164 584.553 722.215 584.553C718.159 584.553 714.789 583.658 712.103 581.867C709.469 580.024 707.705 577.338 706.81 573.809L712.498 571.913ZM789.04 555.876C791.989 555.876 794.385 555.428 796.229 554.533C798.072 553.638 799.415 552.374 800.258 550.741C801.153 549.108 801.601 547.212 801.601 545.053C801.601 541.63 800.6 538.97 798.599 537.074C796.65 535.178 793.464 534.23 789.04 534.23H775.847V555.876H789.04ZM807.842 545.053C807.842 547.212 807.473 549.293 806.736 551.294C806.051 553.243 804.945 554.981 803.418 556.508C801.89 558.035 799.942 559.247 797.572 560.142C795.202 560.985 792.358 561.406 789.04 561.406H775.847V584H769.527V528.7H789.04C793.358 528.7 796.887 529.437 799.626 530.912C802.417 532.387 804.471 534.362 805.788 536.837C807.157 539.312 807.842 542.051 807.842 545.053ZM833.857 584.553C830.17 584.553 826.878 583.658 823.982 581.867C821.138 580.076 818.899 577.627 817.267 574.52C815.634 571.413 814.818 567.858 814.818 563.855C814.818 560.01 815.634 556.587 817.267 553.585C818.899 550.583 821.138 548.239 823.982 546.554C826.826 544.816 830.065 543.947 833.699 543.947C837.28 543.947 840.466 544.737 843.258 546.317C846.102 547.897 848.314 550.083 849.894 552.874C851.474 555.665 852.211 558.852 852.106 562.433C852.106 563.012 852.079 563.618 852.027 564.25C851.974 564.882 851.921 565.567 851.869 566.304H821.296C821.401 568.779 822.007 570.965 823.113 572.861C824.219 574.757 825.667 576.258 827.458 577.364C829.301 578.417 831.381 578.944 833.699 578.944C836.753 578.944 839.334 578.365 841.441 577.206C843.6 576.047 845.154 574.388 846.102 572.229L851.237 574.283C849.657 577.601 847.366 580.155 844.364 581.946C841.362 583.684 837.859 584.553 833.857 584.553ZM845.628 561.169C845.68 558.904 845.18 556.903 844.127 555.165C843.126 553.427 841.704 552.058 839.861 551.057C838.017 550.056 835.884 549.556 833.462 549.556C831.355 549.556 829.433 550.056 827.695 551.057C825.957 552.058 824.508 553.453 823.35 555.244C822.244 556.982 821.585 558.957 821.375 561.169H845.628ZM864.386 544.5V533.44H870.311V544.5H880.818V550.03H870.311V571.281C870.311 573.704 870.812 575.468 871.812 576.574C872.866 577.68 874.182 578.338 875.762 578.549C877.395 578.76 879.08 578.76 880.818 578.549V583.684C878.764 584.158 876.737 584.29 874.735 584.079C872.787 583.868 871.022 583.289 869.442 582.341C867.915 581.34 866.677 579.945 865.729 578.154C864.834 576.363 864.386 574.072 864.386 571.281V550.03H858.461V544.5H864.386ZM889.632 544.5H895.083L895.399 550.267C896.452 548.845 897.716 547.634 899.191 546.633C900.718 545.632 902.377 544.948 904.168 544.579C906.011 544.158 907.96 544.131 910.014 544.5V550.425C907.802 550.004 905.8 550.004 904.01 550.425C902.272 550.846 900.771 551.636 899.507 552.795C898.243 553.954 897.268 555.428 896.584 557.219C895.899 558.957 895.557 560.985 895.557 563.302V584H889.632V544.5ZM935.164 584.553C931.424 584.553 928.08 583.737 925.131 582.104C922.181 580.471 919.864 578.154 918.179 575.152C916.493 572.097 915.651 568.49 915.651 564.329C915.651 560.116 916.493 556.482 918.179 553.427C919.917 550.372 922.26 548.029 925.21 546.396C928.212 544.763 931.582 543.947 935.322 543.947C939.061 543.947 942.405 544.763 945.355 546.396C948.357 548.029 950.7 550.372 952.386 553.427C954.124 556.429 954.993 560.01 954.993 564.171C954.993 568.384 954.124 572.018 952.386 575.073C950.648 578.128 948.278 580.471 945.276 582.104C942.274 583.737 938.903 584.553 935.164 584.553ZM935.085 578.944C937.402 578.944 939.588 578.444 941.642 577.443C943.696 576.39 945.355 574.783 946.619 572.624C947.935 570.412 948.594 567.621 948.594 564.25C948.594 560.827 947.962 558.035 946.698 555.876C945.434 553.717 943.775 552.137 941.721 551.136C939.719 550.083 937.56 549.556 935.243 549.556C932.925 549.556 930.766 550.083 928.765 551.136C926.763 552.137 925.131 553.743 923.867 555.955C922.655 558.114 922.05 560.879 922.05 564.25C922.05 567.673 922.655 570.465 923.867 572.624C925.078 574.783 926.658 576.39 928.607 577.443C930.608 578.444 932.767 578.944 935.085 578.944ZM964.697 527.12H970.622V584H964.697V527.12ZM999.263 584.553C995.576 584.553 992.285 583.658 989.388 581.867C986.544 580.076 984.306 577.627 982.673 574.52C981.04 571.413 980.224 567.858 980.224 563.855C980.224 560.01 981.04 556.587 982.673 553.585C984.306 550.583 986.544 548.239 989.388 546.554C992.232 544.816 995.471 543.947 999.105 543.947C1002.69 543.947 1005.87 544.737 1008.66 546.317C1011.51 547.897 1013.72 550.083 1015.3 552.874C1016.88 555.665 1017.62 558.852 1017.51 562.433C1017.51 563.012 1017.49 563.618 1017.43 564.25C1017.38 564.882 1017.33 565.567 1017.27 566.304H986.702C986.807 568.779 987.413 570.965 988.519 572.861C989.625 574.757 991.073 576.258 992.864 577.364C994.707 578.417 996.788 578.944 999.105 578.944C1002.16 578.944 1004.74 578.365 1006.85 577.206C1009.01 576.047 1010.56 574.388 1011.51 572.229L1016.64 574.283C1015.06 577.601 1012.77 580.155 1009.77 581.946C1006.77 583.684 1003.27 584.553 999.263 584.553ZM1011.03 561.169C1011.09 558.904 1010.59 556.903 1009.53 555.165C1008.53 553.427 1007.11 552.058 1005.27 551.057C1003.42 550.056 1001.29 549.556 998.868 549.556C996.761 549.556 994.839 550.056 993.101 551.057C991.363 552.058 989.915 553.453 988.756 555.244C987.65 556.982 986.992 558.957 986.781 561.169H1011.03ZM1028.45 544.5H1034.3V584H1028.45V544.5ZM1031.45 536.6C1030.24 536.6 1029.24 536.205 1028.45 535.415C1027.66 534.625 1027.26 533.651 1027.26 532.492C1027.26 531.281 1027.66 530.28 1028.45 529.49C1029.24 528.7 1030.24 528.305 1031.45 528.305C1032.56 528.305 1033.51 528.7 1034.3 529.49C1035.14 530.28 1035.56 531.281 1035.56 532.492C1035.56 533.651 1035.14 534.625 1034.3 535.415C1033.51 536.205 1032.56 536.6 1031.45 536.6ZM1047.63 544.5H1053.08L1053.4 550.267C1054.45 548.845 1055.72 547.634 1057.19 546.633C1058.72 545.632 1060.38 544.948 1062.17 544.579C1064.01 544.158 1065.96 544.131 1068.01 544.5V550.425C1065.8 550.004 1063.8 550.004 1062.01 550.425C1060.27 550.846 1058.77 551.636 1057.51 552.795C1056.24 553.954 1055.27 555.428 1054.58 557.219C1053.9 558.957 1053.56 560.985 1053.56 563.302V584H1047.63V544.5ZM1093.16 584.553C1089.42 584.553 1086.08 583.737 1083.13 582.104C1080.18 580.471 1077.86 578.154 1076.18 575.152C1074.49 572.097 1073.65 568.49 1073.65 564.329C1073.65 560.116 1074.49 556.482 1076.18 553.427C1077.92 550.372 1080.26 548.029 1083.21 546.396C1086.21 544.763 1089.58 543.947 1093.32 543.947C1097.06 543.947 1100.41 544.763 1103.35 546.396C1106.36 548.029 1108.7 550.372 1110.39 553.427C1112.12 556.429 1112.99 560.01 1112.99 564.171C1112.99 568.384 1112.12 572.018 1110.39 575.073C1108.65 578.128 1106.28 580.471 1103.28 582.104C1100.27 583.737 1096.9 584.553 1093.16 584.553ZM1093.08 578.944C1095.4 578.944 1097.59 578.444 1099.64 577.443C1101.7 576.39 1103.35 574.783 1104.62 572.624C1105.94 570.412 1106.59 567.621 1106.59 564.25C1106.59 560.827 1105.96 558.035 1104.7 555.876C1103.43 553.717 1101.77 552.137 1099.72 551.136C1097.72 550.083 1095.56 549.556 1093.24 549.556C1090.93 549.556 1088.77 550.083 1086.76 551.136C1084.76 552.137 1083.13 553.743 1081.87 555.955C1080.66 558.114 1080.05 560.879 1080.05 564.25C1080.05 567.673 1080.66 570.465 1081.87 572.624C1083.08 574.783 1084.66 576.39 1086.61 577.443C1088.61 578.444 1090.77 578.944 1093.08 578.944ZM1125.94 571.913C1126.25 573.493 1126.83 574.81 1127.67 575.863C1128.52 576.864 1129.6 577.627 1130.91 578.154C1132.28 578.681 1133.86 578.944 1135.65 578.944C1138.44 578.944 1140.55 578.417 1141.97 577.364C1143.45 576.258 1144.19 574.889 1144.19 573.256C1144.19 571.887 1143.74 570.781 1142.84 569.938C1142 569.095 1140.87 568.411 1139.45 567.884C1138.02 567.305 1136.44 566.804 1134.71 566.383C1133.34 566.067 1131.86 565.698 1130.28 565.277C1128.7 564.803 1127.2 564.171 1125.78 563.381C1124.36 562.591 1123.2 561.564 1122.3 560.3C1121.41 559.036 1120.96 557.377 1120.96 555.323C1120.96 553.058 1121.56 551.083 1122.78 549.398C1124.04 547.66 1125.75 546.317 1127.91 545.369C1130.12 544.421 1132.65 543.947 1135.5 543.947C1138.76 543.947 1141.66 544.658 1144.19 546.08C1146.77 547.502 1148.56 549.714 1149.56 552.716L1144.03 554.612C1143.66 553.243 1142.97 552.189 1141.97 551.452C1141.03 550.715 1139.95 550.214 1138.73 549.951C1137.58 549.688 1136.42 549.556 1135.26 549.556C1132.89 549.556 1130.97 550.03 1129.49 550.978C1128.07 551.873 1127.36 553.243 1127.36 555.086C1127.36 556.087 1127.6 556.929 1128.07 557.614C1128.54 558.246 1129.2 558.773 1130.04 559.194C1130.89 559.615 1131.89 559.984 1133.05 560.3C1134.2 560.563 1135.47 560.879 1136.84 561.248C1138.37 561.617 1139.92 562.091 1141.5 562.67C1143.08 563.197 1144.55 563.908 1145.92 564.803C1147.29 565.646 1148.4 566.752 1149.24 568.121C1150.14 569.438 1150.58 571.097 1150.58 573.098C1150.58 575.415 1149.95 577.443 1148.69 579.181C1147.42 580.866 1145.66 582.183 1143.4 583.131C1141.18 584.079 1138.6 584.553 1135.65 584.553C1131.6 584.553 1128.23 583.658 1125.54 581.867C1122.91 580.024 1121.14 577.338 1120.25 573.809L1125.94 571.913ZM1212.83 552.479L1212.2 552.558V527.12H1218.12V584H1212.67L1212.27 576.653C1211.06 578.865 1209.25 580.735 1206.82 582.262C1204.45 583.789 1201.5 584.553 1197.98 584.553C1194.34 584.553 1191.15 583.737 1188.42 582.104C1185.73 580.419 1183.62 578.049 1182.1 574.994C1180.62 571.939 1179.88 568.358 1179.88 564.25C1179.88 560.142 1180.62 556.587 1182.1 553.585C1183.62 550.53 1185.73 548.16 1188.42 546.475C1191.15 544.79 1194.34 543.947 1197.98 543.947C1201.71 543.947 1204.82 544.763 1207.3 546.396C1209.77 548.029 1211.62 550.056 1212.83 552.479ZM1186.28 564.25C1186.28 568.779 1187.44 572.387 1189.76 575.073C1192.08 577.706 1195.24 579.023 1199.24 579.023C1201.71 579.023 1203.93 578.444 1205.88 577.285C1207.82 576.126 1209.35 574.441 1210.46 572.229C1211.62 570.017 1212.2 567.357 1212.2 564.25C1212.2 561.143 1211.62 558.509 1210.46 556.35C1209.35 554.138 1207.82 552.453 1205.88 551.294C1203.93 550.083 1201.71 549.477 1199.24 549.477C1195.29 549.477 1192.13 550.82 1189.76 553.506C1187.44 556.139 1186.28 559.721 1186.28 564.25ZM1247.31 584.553C1243.57 584.553 1240.22 583.737 1237.27 582.104C1234.32 580.471 1232.01 578.154 1230.32 575.152C1228.64 572.097 1227.79 568.49 1227.79 564.329C1227.79 560.116 1228.64 556.482 1230.32 553.427C1232.06 550.372 1234.4 548.029 1237.35 546.396C1240.35 544.763 1243.72 543.947 1247.46 543.947C1251.2 543.947 1254.55 544.763 1257.5 546.396C1260.5 548.029 1262.84 550.372 1264.53 553.427C1266.27 556.429 1267.14 560.01 1267.14 564.171C1267.14 568.384 1266.27 572.018 1264.53 575.073C1262.79 578.128 1260.42 580.471 1257.42 582.104C1254.42 583.737 1251.05 584.553 1247.31 584.553ZM1247.23 578.944C1249.54 578.944 1251.73 578.444 1253.78 577.443C1255.84 576.39 1257.5 574.783 1258.76 572.624C1260.08 570.412 1260.74 567.621 1260.74 564.25C1260.74 560.827 1260.1 558.035 1258.84 555.876C1257.58 553.717 1255.92 552.137 1253.86 551.136C1251.86 550.083 1249.7 549.556 1247.39 549.556C1245.07 549.556 1242.91 550.083 1240.91 551.136C1238.91 552.137 1237.27 553.743 1236.01 555.955C1234.8 558.114 1234.19 560.879 1234.19 564.25C1234.19 567.673 1234.8 570.465 1236.01 572.624C1237.22 574.783 1238.8 576.39 1240.75 577.443C1242.75 578.444 1244.91 578.944 1247.23 578.944ZM1331.53 545.053C1331.53 541.735 1330.56 539.102 1328.61 537.153C1326.66 535.204 1323.47 534.23 1319.05 534.23H1305.93V555.876H1319.13C1322.02 555.876 1324.37 555.428 1326.16 554.533C1328 553.638 1329.34 552.374 1330.19 550.741C1331.08 549.108 1331.53 547.212 1331.53 545.053ZM1319.05 528.7C1323.37 528.7 1326.89 529.437 1329.63 530.912C1332.42 532.387 1334.51 534.362 1335.87 536.837C1337.24 539.26 1337.93 541.998 1337.93 545.053C1337.93 547.212 1337.56 549.266 1336.82 551.215C1336.14 553.164 1335.03 554.902 1333.5 556.429C1331.98 557.956 1330.03 559.168 1327.66 560.063C1325.29 560.958 1322.44 561.406 1319.13 561.406H1305.93V584H1299.61V528.7H1319.05ZM1323.63 559.036L1338.96 584H1331.77L1316.84 559.036H1323.63ZM1349.54 544.5H1355.39V584H1349.54V544.5ZM1352.54 536.6C1351.33 536.6 1350.33 536.205 1349.54 535.415C1348.75 534.625 1348.36 533.651 1348.36 532.492C1348.36 531.281 1348.75 530.28 1349.54 529.49C1350.33 528.7 1351.33 528.305 1352.54 528.305C1353.65 528.305 1354.6 528.7 1355.39 529.49C1356.23 530.28 1356.65 531.281 1356.65 532.492C1356.65 533.651 1356.23 534.625 1355.39 535.415C1354.6 536.205 1353.65 536.6 1352.54 536.6ZM1385.79 584.553C1382.05 584.553 1378.7 583.737 1375.75 582.104C1372.81 580.471 1370.49 578.154 1368.8 575.152C1367.12 572.097 1366.27 568.49 1366.27 564.329C1366.27 560.116 1367.12 556.482 1368.8 553.427C1370.54 550.372 1372.88 548.029 1375.83 546.396C1378.84 544.763 1382.21 543.947 1385.95 543.947C1389.68 543.947 1393.03 544.763 1395.98 546.396C1398.98 548.029 1401.32 550.372 1403.01 553.427C1404.75 556.429 1405.62 560.01 1405.62 564.171C1405.62 568.384 1404.75 572.018 1403.01 575.073C1401.27 578.128 1398.9 580.471 1395.9 582.104C1392.9 583.737 1389.53 584.553 1385.79 584.553ZM1385.71 578.944C1388.03 578.944 1390.21 578.444 1392.27 577.443C1394.32 576.39 1395.98 574.783 1397.24 572.624C1398.56 570.412 1399.22 567.621 1399.22 564.25C1399.22 560.827 1398.59 558.035 1397.32 555.876C1396.06 553.717 1394.4 552.137 1392.34 551.136C1390.34 550.083 1388.18 549.556 1385.87 549.556C1383.55 549.556 1381.39 550.083 1379.39 551.136C1377.39 552.137 1375.75 553.743 1374.49 555.955C1373.28 558.114 1372.67 560.879 1372.67 564.25C1372.67 567.673 1373.28 570.465 1374.49 572.624C1375.7 574.783 1377.28 576.39 1379.23 577.443C1381.23 578.444 1383.39 578.944 1385.71 578.944ZM1467.96 552.479L1467.32 552.558V527.12H1473.25V584H1467.8L1467.4 576.653C1466.19 578.865 1464.38 580.735 1461.95 582.262C1459.58 583.789 1456.63 584.553 1453.1 584.553C1449.47 584.553 1446.28 583.737 1443.55 582.104C1440.86 580.419 1438.75 578.049 1437.23 574.994C1435.75 571.939 1435.01 568.358 1435.01 564.25C1435.01 560.142 1435.75 556.587 1437.23 553.585C1438.75 550.53 1440.86 548.16 1443.55 546.475C1446.28 544.79 1449.47 543.947 1453.1 543.947C1456.84 543.947 1459.95 544.763 1462.43 546.396C1464.9 548.029 1466.75 550.056 1467.96 552.479ZM1441.41 564.25C1441.41 568.779 1442.57 572.387 1444.89 575.073C1447.21 577.706 1450.37 579.023 1454.37 579.023C1456.84 579.023 1459.06 578.444 1461 577.285C1462.95 576.126 1464.48 574.441 1465.59 572.229C1466.75 570.017 1467.32 567.357 1467.32 564.25C1467.32 561.143 1466.75 558.509 1465.59 556.35C1464.48 554.138 1462.95 552.453 1461 551.294C1459.06 550.083 1456.84 549.477 1454.37 549.477C1450.42 549.477 1447.26 550.82 1444.89 553.506C1442.57 556.139 1441.41 559.721 1441.41 564.25ZM1501.96 584.553C1498.28 584.553 1494.98 583.658 1492.09 581.867C1489.24 580.076 1487 577.627 1485.37 574.52C1483.74 571.413 1482.92 567.858 1482.92 563.855C1482.92 560.01 1483.74 556.587 1485.37 553.585C1487 550.583 1489.24 548.239 1492.09 546.554C1494.93 544.816 1498.17 543.947 1501.8 543.947C1505.39 543.947 1508.57 544.737 1511.36 546.317C1514.21 547.897 1516.42 550.083 1518 552.874C1519.58 555.665 1520.32 558.852 1520.21 562.433C1520.21 563.012 1520.18 563.618 1520.13 564.25C1520.08 564.882 1520.03 565.567 1519.97 566.304H1489.4C1489.51 568.779 1490.11 570.965 1491.22 572.861C1492.32 574.757 1493.77 576.258 1495.56 577.364C1497.41 578.417 1499.49 578.944 1501.8 578.944C1504.86 578.944 1507.44 578.365 1509.55 577.206C1511.71 576.047 1513.26 574.388 1514.21 572.229L1519.34 574.283C1517.76 577.601 1515.47 580.155 1512.47 581.946C1509.47 583.684 1505.96 584.553 1501.96 584.553ZM1513.73 561.169C1513.79 558.904 1513.29 556.903 1512.23 555.165C1511.23 553.427 1509.81 552.058 1507.97 551.057C1506.12 550.056 1503.99 549.556 1501.57 549.556C1499.46 549.556 1497.54 550.056 1495.8 551.057C1494.06 552.058 1492.61 553.453 1491.46 555.244C1490.35 556.982 1489.69 558.957 1489.48 561.169H1513.73ZM1573.44 528.7H1579.76V569.543C1579.76 572.44 1579.12 575.02 1577.86 577.285C1576.6 579.55 1574.83 581.34 1572.57 582.657C1570.35 583.921 1567.75 584.553 1564.75 584.553C1560.95 584.553 1557.85 583.605 1555.42 581.709C1553 579.76 1551.34 577.101 1550.45 573.73L1555.9 571.755C1556.27 573.124 1556.79 574.362 1557.48 575.468C1558.21 576.574 1559.16 577.443 1560.32 578.075C1561.53 578.707 1563.01 579.023 1564.75 579.023C1566.8 579.023 1568.46 578.549 1569.72 577.601C1570.99 576.653 1571.91 575.468 1572.49 574.046C1573.12 572.571 1573.44 571.07 1573.44 569.543V528.7ZM1616.95 584L1616.48 576.89C1615.37 579.313 1613.74 581.209 1611.58 582.578C1609.42 583.895 1606.68 584.553 1603.36 584.553C1600.52 584.553 1598.09 584.105 1596.09 583.21C1594.09 582.315 1592.54 581.051 1591.43 579.418C1590.38 577.733 1589.85 575.758 1589.85 573.493C1589.85 570.175 1591.09 567.463 1593.57 565.356C1596.04 563.197 1599.62 561.88 1604.31 561.406L1616.48 560.063V556.903C1616.48 554.691 1615.66 552.927 1614.03 551.61C1612.39 550.241 1610.18 549.556 1607.39 549.556C1604.65 549.556 1602.36 550.188 1600.52 551.452C1598.73 552.716 1597.49 554.533 1596.8 556.903L1591.43 555.007C1592.49 551.531 1594.41 548.819 1597.2 546.87C1600.04 544.921 1603.49 543.947 1607.55 543.947C1612.24 543.947 1615.87 545.158 1618.45 547.581C1621.08 549.951 1622.4 553.19 1622.4 557.298V584H1616.95ZM1616.48 565.119L1604.23 566.541C1601.6 566.857 1599.6 567.594 1598.23 568.753C1596.86 569.859 1596.17 571.334 1596.17 573.177C1596.17 575.02 1596.83 576.495 1598.15 577.601C1599.52 578.707 1601.47 579.26 1603.99 579.26C1606.89 579.26 1609.26 578.681 1611.1 577.522C1612.95 576.363 1614.29 574.81 1615.13 572.861C1616.03 570.86 1616.48 568.7 1616.48 566.383V565.119ZM1633.96 544.5H1639.41L1639.73 550.109C1640.99 548.16 1642.65 546.659 1644.7 545.606C1646.76 544.5 1649.15 543.947 1651.89 543.947C1654.89 543.947 1657.53 544.605 1659.79 545.922C1662.06 547.186 1663.82 549.108 1665.09 551.689C1666.35 554.217 1666.98 557.403 1666.98 561.248V584H1661.06V561.959C1661.06 557.851 1660.16 554.744 1658.37 552.637C1656.63 550.478 1654.1 549.398 1650.79 549.398C1647.36 549.398 1644.68 550.53 1642.73 552.795C1640.83 555.06 1639.88 558.404 1639.88 562.828V584H1633.96V544.5ZM1695.06 584.553C1691.38 584.553 1688.09 583.658 1685.19 581.867C1682.35 580.076 1680.11 577.627 1678.47 574.52C1676.84 571.413 1676.03 567.858 1676.03 563.855C1676.03 560.01 1676.84 556.587 1678.47 553.585C1680.11 550.583 1682.35 548.239 1685.19 546.554C1688.03 544.816 1691.27 543.947 1694.91 543.947C1698.49 543.947 1701.67 544.737 1704.47 546.317C1707.31 547.897 1709.52 550.083 1711.1 552.874C1712.68 555.665 1713.42 558.852 1713.31 562.433C1713.31 563.012 1713.29 563.618 1713.23 564.25C1713.18 564.882 1713.13 565.567 1713.08 566.304H1682.5C1682.61 568.779 1683.21 570.965 1684.32 572.861C1685.43 574.757 1686.87 576.258 1688.67 577.364C1690.51 578.417 1692.59 578.944 1694.91 578.944C1697.96 578.944 1700.54 578.365 1702.65 577.206C1704.81 576.047 1706.36 574.388 1707.31 572.229L1712.44 574.283C1710.86 577.601 1708.57 580.155 1705.57 581.946C1702.57 583.684 1699.07 584.553 1695.06 584.553ZM1706.84 561.169C1706.89 558.904 1706.39 556.903 1705.33 555.165C1704.33 553.427 1702.91 552.058 1701.07 551.057C1699.23 550.056 1697.09 549.556 1694.67 549.556C1692.56 549.556 1690.64 550.056 1688.9 551.057C1687.16 552.058 1685.72 553.453 1684.56 555.244C1683.45 556.982 1682.79 558.957 1682.58 561.169H1706.84ZM1724.25 544.5H1730.1V584H1724.25V544.5ZM1727.25 536.6C1726.04 536.6 1725.04 536.205 1724.25 535.415C1723.46 534.625 1723.07 533.651 1723.07 532.492C1723.07 531.281 1723.46 530.28 1724.25 529.49C1725.04 528.7 1726.04 528.305 1727.25 528.305C1728.36 528.305 1729.31 528.7 1730.1 529.49C1730.94 530.28 1731.36 531.281 1731.36 532.492C1731.36 533.651 1730.94 534.625 1730.1 535.415C1729.31 536.205 1728.36 536.6 1727.25 536.6ZM1743.43 544.5H1748.88L1749.2 550.267C1750.25 548.845 1751.52 547.634 1752.99 546.633C1754.52 545.632 1756.18 544.948 1757.97 544.579C1759.81 544.158 1761.76 544.131 1763.82 544.5V550.425C1761.6 550.004 1759.6 550.004 1757.81 550.425C1756.07 550.846 1754.57 551.636 1753.31 552.795C1752.04 553.954 1751.07 555.428 1750.39 557.219C1749.7 558.957 1749.36 560.985 1749.36 563.302V584H1743.43V544.5ZM1788.97 584.553C1785.23 584.553 1781.88 583.737 1778.93 582.104C1775.98 580.471 1773.67 578.154 1771.98 575.152C1770.3 572.097 1769.45 568.49 1769.45 564.329C1769.45 560.116 1770.3 556.482 1771.98 553.427C1773.72 550.372 1776.06 548.029 1779.01 546.396C1782.01 544.763 1785.38 543.947 1789.12 543.947C1792.86 543.947 1796.21 544.763 1799.16 546.396C1802.16 548.029 1804.5 550.372 1806.19 553.427C1807.93 556.429 1808.79 560.01 1808.79 564.171C1808.79 568.384 1807.93 572.018 1806.19 575.073C1804.45 578.128 1802.08 580.471 1799.08 582.104C1796.08 583.737 1792.7 584.553 1788.97 584.553ZM1788.89 578.944C1791.2 578.944 1793.39 578.444 1795.44 577.443C1797.5 576.39 1799.16 574.783 1800.42 572.624C1801.74 570.412 1802.4 567.621 1802.4 564.25C1802.4 560.827 1801.76 558.035 1800.5 555.876C1799.24 553.717 1797.58 552.137 1795.52 551.136C1793.52 550.083 1791.36 549.556 1789.04 549.556C1786.73 549.556 1784.57 550.083 1782.57 551.136C1780.57 552.137 1778.93 553.743 1777.67 555.955C1776.46 558.114 1775.85 560.879 1775.85 564.25C1775.85 567.673 1776.46 570.465 1777.67 572.624C1778.88 574.783 1780.46 576.39 1782.41 577.443C1784.41 578.444 1786.57 578.944 1788.89 578.944Z" fill="#761514"/>
<path d="M261.5 464.5L246.5 454.5L275.5 418L296.5 433C301.29 435.617 304.441 436.36 310.5 437C322.02 437.599 328.481 437.641 340 437C341.942 435.863 342.493 434.929 343 433C342.844 430.289 342.053 429.159 340 427.5C338.625 426.492 334.301 425.238 324 422.5C316.038 420.849 311.451 419.863 303 418C290.998 415.124 286.474 413.793 283 412L271.5 403C266.723 399.272 264.204 396.873 260 392C257.769 388.637 256.897 386.854 256.5 384V352.5C256.484 350.036 257.12 348.256 260 344L268.5 332.5C271.984 328.762 274.498 326.956 279.5 324C287.86 318.435 291.802 316.102 295 316H353.5C356.449 316.158 358.92 316.883 365 319.5L376.5 325L390 332.5C396.912 337.161 398.996 338.773 398 339L370 373.5L353.5 366C347.148 363.07 343.784 361.57 340 360.5C328.33 358.117 327.287 357.99 326.5 358C320.189 357.65 317.798 357.635 316 358C312.99 358.746 311.668 359.263 310.5 360.5L307.5 363.5C306.608 364.855 307.785 366.101 310.5 368.5C311.198 368.963 312.7 369.475 318 371L338 376.5L353.5 379C355.752 379.408 357.961 380.154 366.5 384L383 393C387.559 396.097 390.108 396.833 392 400C394.986 402.836 396.02 406.269 398 412V441.5L395.5 448L390 458L379 469.5L363 477L347 481.5H307.5C300.15 479.911 296.645 479.906 291 478C286.219 477.118 283.454 475.307 278 473.5C271.487 470.663 267.877 468.709 261.5 464.5Z" fill="#6D0201"/>
<path d="M462.5 480.5H408.5H408V350.5H462.5V480.5Z" fill="#6D0201"/>
<path d="M408 314.5V345.5H462.5V314.5H408Z" fill="#6D0201"/>
<path d="M474.5 350V480H527V413L528.5 408L531.5 400L536.5 396H542L546.5 398L550.5 402.5L553 408V478.5H607V379.5L603.5 371L592 357.5L580.5 350H549L543.5 354L534.5 360.5L525 368.5V350H474.5Z" fill="#6D0201"/>
<path d="M759 480.5H705.5V465.34L699.878 471.827L699.846 471.864L699.807 471.895L690.807 478.895L690.694 478.982L690.552 478.997L676.052 480.497L676.025 480.5H655.906L655.819 480.466L640.319 474.466L640.221 474.428L628.613 462.82L628.587 462.781L620.087 450.281L620.056 450.236L620.036 450.186L615.036 437.686L615.017 437.639L615.008 437.59L613.008 426.59L613 426.545V406.938L613.015 406.879L617.021 390.852L617.032 390.824L621.532 378.824L621.549 378.78L621.573 378.74L628.573 367.24L628.597 367.201L628.626 367.168L636.626 358.168L636.686 358.101L636.765 358.059L651.765 350.059L651.875 350H685.669L685.803 350.103L696.279 358.085L701.257 361.071L701.272 361.08L701.287 361.091L705.5 364.039V310H759V480.5ZM682.394 393.5L673.297 397.543L673.162 397.604L673.081 397.727L665.581 409.227L665.485 409.374L665.502 409.548L667.002 425.048L667.017 425.196L667.109 425.312L673.109 432.812L673.171 432.89L673.257 432.938L682.257 437.938L682.37 438H691.668L691.803 437.898L704.303 428.398L704.432 428.3L704.479 428.146L707.979 416.646L708.024 416.493L707.975 416.342L704.436 405.725L704.347 405.64L691.847 393.64L691.701 393.5H682.394Z" fill="#6D0201"/>
<path d="M771 350V478.5V480H824V350H771Z" fill="#6D0201"/>
<path d="M771 310V345.5H824V310H771Z" fill="#6D0201"/>
<path d="M891 364.222L896.168 358.623L896.209 358.593L903.209 353.593L903.231 353.577L903.255 353.564L911.255 349.064L911.369 349H937.053L937.104 349.011L944.104 350.511L944.167 350.524L953.224 355.053L953.289 355.086L953.343 355.136L961.843 363.136L961.861 363.153L961.877 363.172L971.877 374.672L971.919 374.72L977.447 385.776L977.467 385.816L977.479 385.859L979.979 394.359L980 394.428V434.047L979.991 434.092L978.491 442.092L978.482 442.143L978.463 442.189L973.963 453.189L973.941 453.241L973.909 453.288L964.409 466.788L964.356 466.862L964.28 466.914L948.78 477.414L948.749 477.435L948.716 477.451L937.216 482.951L937.113 483H914.409L914.324 482.968L906.324 479.968L906.273 479.949L906.228 479.919L896.228 473.419L896.175 473.385L896.133 473.339L891 467.778V515H836.002L836 514.502L835.5 350.002L835.498 349.5H837.495L890.495 349L891 348.995V364.222ZM906.403 393.5L906.314 393.536L896.314 397.536L896.204 397.58L896.125 397.669L888.625 406.169L888.5 406.311V420.099L888.538 420.19L892.038 428.69L892.082 428.797L892.168 428.874L901.168 436.874L901.31 437H916.684L923.323 431.382L923.396 431.319L923.441 431.235L927.441 423.735L927.5 423.625V409.875L927.441 409.765L923.441 402.265L923.391 402.17L923.306 402.104L912.306 393.604L912.171 393.5H906.403Z" fill="#6D0201"/>
<path d="M1070.16 349.525L1080.66 353.025L1080.71 353.044L1080.76 353.073L1089.76 358.573L1089.82 358.607L1089.86 358.653L1102.36 371.653L1102.39 371.684L1102.41 371.719L1109.91 382.719L1109.95 382.771L1109.97 382.829L1113.97 393.829L1113.98 393.854L1113.99 393.879L1115.49 399.879L1115.5 399.938V428.5H1036.75L1038.91 433.682L1048.73 441.048L1056.52 443.482L1067.79 441.033L1079.71 432.592L1079.84 432.5H1086.12L1086.24 432.559L1093.74 436.559L1093.78 436.582L1093.82 436.613L1104.85 445.64L1111.88 453.671L1112 453.812V458.229L1111.83 458.38L1104.83 464.38L1104.82 464.388L1104.81 464.395L1091.31 474.895L1091.26 474.933L1091.2 474.957L1082.2 478.957L1082.16 478.975L1082.12 478.985L1068.12 482.485L1068.06 482.5H1035.91L1026.82 478.966L1026.79 478.954L1026.76 478.938L1011.26 470.438L1011.22 470.415L1011.18 470.384L1002.16 462.864L1002.14 462.843L994.136 454.343L994.093 454.297L994.062 454.241L988.562 444.241L988.543 444.206L988.529 444.168L986.029 437.168L986 437.087V393.894L990.055 384.771L990.069 384.746L996.569 373.746L996.594 373.704L996.626 373.668L1004.63 364.668L1004.66 364.629L1004.7 364.598L1016.2 356.098L1016.24 356.069L1016.29 356.049L1026.79 351.049L1026.84 351.023L1026.9 351.011L1033.9 349.511L1033.95 349.5H1070.08L1070.16 349.525ZM1050.35 386.522L1043.85 388.522L1043.73 388.559L1038.09 394.199L1033.56 402.766L1033.17 403.5H1067.17L1066.98 402.859L1064.48 394.359L1064.44 394.236L1058.76 388.549L1058.62 388.515L1050.62 386.515L1050.49 386.481L1050.35 386.522Z" fill="#6D0201"/>
<path d="M1166.5 481.5H1180L1190 480.5L1204.5 479L1212.5 475V432.5L1205 437L1199.5 438.5L1194 437L1189 434L1185.5 428V393H1212.5V353.5H1185.5V322.5H1133.5V353.5H1119V393H1133.5L1135 457L1139 465.5L1146 473.5L1155 478L1166.5 481.5Z" fill="#6D0201"/>
<path d="M1224.5 353.5V480H1275.5V431L1278.5 423.5L1285 416L1299 408.5L1311 404.5V353.5H1296.5L1292 357L1282 366L1275.5 373V353.5H1224.5Z" fill="#6D0201"/>
<path d="M1410.22 354.049L1421.72 359.549L1421.76 359.569L1421.79 359.597L1434.79 369.097L1434.84 369.132L1434.88 369.177L1445.88 382.177L1445.91 382.214L1445.94 382.256L1452.94 394.756L1452.98 394.827L1452.99 394.908L1454.49 402.908L1454.5 402.953V428.531L1453 440.562L1452.99 440.65L1452.94 440.73L1445.94 454.23L1445.9 454.313L1445.83 454.375L1437.33 461.875L1437.32 461.881L1427.32 470.381L1427.29 470.41L1427.25 470.433L1417.73 475.943L1408.21 480.452L1408.13 480.492L1408.04 480.499L1394.04 481.499L1394.02 481.5H1370.94L1370.88 481.485L1358.84 478.475L1358.79 478.456L1348.79 473.956L1348.74 473.931L1348.69 473.893L1339.19 466.393L1339.16 466.371L1339.14 466.346L1328.64 455.346L1328.61 455.313L1328.58 455.277L1321.58 444.777L1321.54 444.709L1321.52 444.63L1318.02 431.63L1318 431.566V405.438L1318.01 405.379L1321.51 391.379L1321.53 391.311L1321.57 391.25L1329.07 378.25L1329.09 378.203L1329.13 378.164L1339.13 367.164L1339.17 367.125L1339.21 367.094L1351.71 358.094L1351.77 358.05L1351.84 358.025L1363.84 354.025L1363.92 354H1410.11L1410.22 354.049ZM1391.57 394.006C1389.38 393.676 1388.12 393.693 1385.93 394.005L1385.89 394.011L1385.85 394.022C1383.03 394.892 1381.46 395.424 1378.81 396.539L1378.79 396.549C1375.41 398.158 1373.75 399.248 1371.62 401.671L1371.6 401.695L1371.58 401.723L1367.58 407.723L1367.57 407.748L1367.55 407.774C1365.97 410.912 1365.33 412.966 1365 417.464L1365 417.491C1364.95 420.104 1365.13 421.673 1366.02 424.644L1366.04 424.697L1366.07 424.747C1366.81 426.057 1367.39 427.111 1368.46 428.392C1369.51 429.663 1371.04 431.147 1373.65 433.357C1374.85 434.729 1375.77 435.522 1377.71 436.907L1377.77 436.949L1377.84 436.973C1380.79 437.999 1382.58 438.361 1385.98 438.5L1386.04 438.502L1386.1 438.49C1388.06 438.101 1389.21 437.841 1391.65 436.977C1394 436.335 1395.33 435.887 1397.68 434.966L1397.74 434.944L1397.79 434.911C1400.27 433.189 1401.64 432.145 1403.38 429.82C1405.42 427.665 1406.21 426.529 1406.96 424.69L1406.99 424.626L1407 424.556C1407.28 422.017 1407.4 420.667 1407.5 418.521C1407.84 414.524 1407.28 412.983 1406.99 411.409L1406.98 411.362L1406.97 411.318C1405.38 407.239 1404.59 405.495 1403.44 403.271C1401.89 400.243 1400.56 398.818 1397.81 396.61L1397.79 396.59L1397.76 396.572C1395.55 395.228 1394.2 394.629 1391.62 394.014L1391.6 394.009L1391.57 394.006Z" fill="#6D0201"/>
<path d="M1633.56 318.003L1642.56 319.003L1642.6 319.008L1642.65 319.022L1655.65 323.022L1655.7 323.037L1655.74 323.062L1664.74 328.062L1664.79 328.089L1664.83 328.125L1673.33 335.625L1673.37 335.657L1673.4 335.696L1679.9 344.196L1679.93 344.234L1679.95 344.276L1683.97 352.329L1683.99 352.386L1685.99 360.886L1686 360.942V389.077L1685.98 389.151L1682.46 400.216L1682.42 400.271L1676.92 408.771L1676.9 408.808L1676.87 408.839L1670.87 415.339L1670.84 415.37L1670.8 415.396L1664.3 420.396L1664.24 420.447L1664.16 420.475L1658.55 422.345L1658.98 425.837L1662.42 431.72L1665.4 435.7L1665.41 435.709L1665.41 435.719L1672.91 446.719L1672.92 446.726L1672.92 446.733L1678.92 456.221L1688.4 469.205L1688.42 469.221L1688.43 469.238L1692.43 475.738L1694.38 479H1631.75L1631.6 478.806L1623.1 467.806L1623.1 467.794L1623.09 467.781L1615.59 456.781L1615.57 456.758L1615.56 456.732L1610.56 447.232V447.231L1604.57 436.254L1602.22 432.5H1590.5V479H1537.5V318H1633.53L1633.56 318.003ZM1589.5 361V393H1623.58L1623.66 392.975L1628.16 391.475L1628.27 391.438L1628.35 391.354L1632.93 386.781L1632.96 386.686L1634.96 381.686L1635 381.597V376.354L1634.92 376.231L1631.42 370.731L1631.39 370.686L1625.83 365.119L1620.29 361.096L1620.16 361H1589.5Z" fill="#6D0201"/>
<path d="M1720.5 421.5L1686 453L1694.5 462L1704.5 470.5L1717 477.5L1723.5 480H1765.5L1778.5 475.5L1788 470.5L1794.5 464.5L1801 456L1805.5 447.5L1809.5 436V318.5H1758.5V423.5L1753 430L1746.5 435H1740.5C1738.5 435 1735.33 433 1734 432L1728.5 428L1720.5 421.5Z" fill="#6D0201"/>
</svg>
